<?xml version="1.0" encoding="utf-8"?>
<!-- Generator: Adobe Illustrator 25.2.0, SVG Export Plug-In . SVG Version: 6.00 Build 0)  -->
<svg version="1.1" id="レイヤー_1" xmlns="http://www.w3.org/2000/svg" xmlns:xlink="http://www.w3.org/1999/xlink" x="0px"
	 y="0px" viewBox="0 0 850.39 623.62" style="enable-background:new 0 0 850.39 623.62;" xml:space="preserve">
<style type="text/css">
	.st0{fill:none;stroke:#231815;stroke-miterlimit:10;}
</style>
<g>
	<g>
		<g>
			<rect x="460.06" y="346.68" class="st0" width="38.27" height="38.27"/>
			<rect x="460.06" y="346.68" class="st0" width="38.27" height="38.27"/>
		</g>
		<g>
			<rect x="406.06" y="346.68" class="st0" width="38.27" height="38.27"/>
			<rect x="406.06" y="346.68" class="st0" width="38.27" height="38.27"/>
		</g>
		<g>
			<rect x="352.06" y="346.68" class="st0" width="38.27" height="38.27"/>
			<rect x="352.06" y="346.68" class="st0" width="38.27" height="38.27"/>
		</g>
	</g>
	<g>
		<g>
			<rect x="460.06" y="292.68" class="st0" width="38.27" height="38.27"/>
			<rect x="460.06" y="292.68" class="st0" width="38.27" height="38.27"/>
		</g>
		<g>
			<rect x="406.06" y="292.68" class="st0" width="38.27" height="38.27"/>
			<rect x="406.06" y="292.68" class="st0" width="38.27" height="38.27"/>
		</g>
		<g>
			<rect x="352.06" y="292.68" class="st0" width="38.27" height="38.27"/>
			<rect x="352.06" y="292.68" class="st0" width="38.27" height="38.27"/>
		</g>
	</g>
	<g>
		<g>
			<rect x="460.06" y="238.68" class="st0" width="38.27" height="38.27"/>
			<rect x="460.06" y="238.68" class="st0" width="38.27" height="38.27"/>
		</g>
		<g>
			<rect x="406.06" y="238.68" class="st0" width="38.27" height="38.27"/>
			<rect x="406.06" y="238.68" class="st0" width="38.27" height="38.27"/>
		</g>
		<g>
			<rect x="352.06" y="238.68" class="st0" width="38.27" height="38.27"/>
			<rect x="352.06" y="238.68" class="st0" width="38.27" height="38.27"/>
		</g>
	</g>
</g>
<circle class="st0" cx="344.2" cy="230.81" r="2.83"/>
<circle class="st0" cx="506.2" cy="392.81" r="2.83"/>
<circle class="st0" cx="344.2" cy="392.81" r="2.83"/>
<circle class="st0" cx="506.2" cy="230.81" r="2.83"/>
<path class="st0" d="M508.39,400.68H342c-3.13,0-5.67-2.54-5.67-5.67V228.61c0-3.13,2.54-5.67,5.67-5.67h166.39
	c3.13,0,5.67,2.54,5.67,5.67v166.39C514.06,398.14,511.52,400.68,508.39,400.68z"/>
</svg>
